<?xml version="1.0" standalone="no"?>
<!DOCTYPE svg PUBLIC "-//W3C//DTD SVG 20010904//EN"
 "http://www.w3.org/TR/2001/REC-SVG-20010904/DTD/svg10.dtd">
<svg version="1.0" xmlns="http://www.w3.org/2000/svg"
 width="500.000000pt" height="500.000000pt" viewBox="0 0 500.000000 500.000000"
 preserveAspectRatio="xMidYMid meet">

<g transform="translate(0.000000,500.000000) scale(0.100000,-0.100000)"
fill="#A65F46" stroke="none">
<path d="M1066 4681 c72 -69 263 -212 499 -376 558 -388 773 -563 880 -719 35
-52 55 -69 55 -48 0 5 -14 29 -32 53 -136 190 -331 349 -953 777 -241 166
-369 261 -442 326 -74 66 -79 56 -7 -13z"/>
<path d="M4144 4682 c-109 -91 -171 -137 -454 -332 -460 -317 -645 -459 -798
-610 -71 -69 -162 -183 -162 -201 0 -21 19 -6 45 34 41 62 186 208 300 301
146 120 230 182 525 386 306 211 479 341 565 422 33 32 57 57 54 58 -3 0 -36
-26 -75 -58z"/>
<path d="M2547 3516 c-27 -7 -52 -17 -56 -22 -4 -5 -6 -29 -3 -52 4 -39 6 -43
26 -37 45 14 128 17 172 6 26 -7 48 -11 49 -9 1 2 5 23 8 46 5 42 4 44 -26 57
-51 21 -118 26 -170 11z"/>
<path d="M1866 3482 c-9 -15 18 -110 46 -167 51 -101 141 -170 235 -181 45 -6
49 -4 66 24 9 17 17 33 17 36 0 3 -32 6 -71 6 -136 0 -185 47 -275 269 -7 17
-13 21 -18 13z"/>
<path d="M3331 3435 c-46 -123 -98 -195 -159 -220 -19 -8 -65 -15 -103 -15
-38 0 -69 -3 -69 -6 0 -3 8 -19 17 -35 21 -36 50 -37 129 -8 99 37 175 133
209 266 20 77 3 91 -24 18z"/>
<path d="M2400 3473 c-56 -20 -69 -123 -16 -123 49 0 87 85 54 118 -13 13 -15
13 -38 5z"/>
<path d="M2785 3456 c-17 -26 -12 -50 18 -83 24 -27 62 -30 71 -7 16 42 1 80
-41 102 -29 16 -30 16 -48 -12z"/>
<path d="M2507 3356 c-157 -65 -280 -223 -323 -415 -34 -153 0 -287 100 -387
50 -50 74 -65 131 -85 61 -21 87 -24 205 -23 112 0 145 4 194 22 104 38 173
104 212 201 100 248 -58 594 -318 693 -65 24 -131 22 -201 -6z"/>
<path d="M1993 2703 c-125 -251 -217 -453 -204 -453 15 0 163 156 198 209 64
96 111 241 122 381 5 52 7 96 6 98 -2 2 -56 -104 -122 -235z"/>
<path d="M3118 2861 c7 -159 82 -360 177 -469 57 -65 143 -147 149 -141 10 10
-247 551 -310 655 l-19 32 3 -77z"/>
<path d="M2086 2527 c-55 -215 -127 -426 -211 -617 -176 -402 -215 -562 -215
-891 0 -211 45 -717 65 -738 2 -2 36 5 76 15 l71 18 -6 61 c-37 366 -23 717
45 1055 39 194 117 457 163 548 7 15 21 72 31 127 14 85 64 300 93 399 7 25 2
39 -25 85 -18 30 -33 60 -33 67 0 7 -3 15 -8 18 -4 2 -25 -64 -46 -147z"/>
<path d="M3075 2623 c-15 -35 -33 -67 -40 -73 -9 -8 -7 -30 12 -97 31 -116 70
-292 83 -374 5 -37 22 -93 36 -125 89 -199 174 -558 204 -864 14 -142 14 -512
1 -640 -16 -146 -21 -134 59 -154 39 -10 73 -16 77 -13 8 9 39 283 54 475 16
223 7 507 -20 635 -26 120 -89 300 -166 472 -116 260 -162 395 -239 694 l-33
126 -28 -62z"/>
<path d="M2222 2436 l-20 -66 24 -57 c13 -32 24 -66 24 -75 0 -40 18 -23 30
29 6 31 21 81 31 112 18 52 19 57 3 66 -9 6 -29 20 -45 33 l-28 23 -19 -65z"/>
<path d="M2958 2475 c-16 -13 -35 -28 -43 -32 -12 -7 -10 -22 15 -103 16 -52
30 -104 31 -115 l0 -20 9 20 c5 11 20 48 33 82 24 61 24 63 8 122 -9 33 -18
62 -21 64 -3 3 -17 -5 -32 -18z"/>
<path d="M2359 2392 c-24 -63 -59 -235 -70 -342 -19 -194 9 -487 86 -895 24
-126 49 -263 56 -302 7 -40 17 -69 21 -65 4 4 18 46 32 94 24 83 25 93 15 205
-12 149 -23 233 -59 458 -60 372 -61 531 -7 752 l23 92 -43 15 -44 15 -10 -27z"/>
<path d="M2825 2408 c-16 -5 -35 -11 -42 -13 -9 -3 -7 -22 8 -72 53 -189 60
-390 19 -648 -48 -304 -70 -468 -79 -585 -9 -117 -8 -129 16 -210 13 -47 27
-88 31 -92 4 -4 25 83 46 195 124 659 147 927 100 1194 -15 91 -51 223 -62
234 -4 4 -20 2 -37 -3z"/>
<path d="M1941 2340 c-34 -38 -93 -95 -130 -126 l-69 -56 -76 -190 c-43 -104
-92 -231 -110 -281 -19 -51 -37 -101 -41 -112 -4 -11 20 20 54 69 93 134 192
255 283 347 17 16 43 66 63 121 39 102 97 290 92 294 -2 2 -31 -28 -66 -66z"/>
<path d="M3220 2405 c0 -5 28 -93 62 -194 l62 -183 76 -82 c86 -92 186 -219
254 -320 25 -39 46 -67 46 -64 0 9 -44 123 -141 368 l-89 226 -71 59 c-39 32
-99 91 -134 129 -36 39 -65 67 -65 61z"/>
<path d="M2683 2382 l-43 -3 0 -327 c0 -180 5 -399 10 -487 11 -156 36 -404
43 -411 1 -2 11 63 20 144 10 81 32 230 49 332 40 241 42 420 9 589 -31 158
-36 167 -88 163z"/>
<path d="M2490 2356 c-17 -46 -41 -181 -50 -283 -10 -110 0 -279 25 -423 27
-157 54 -344 61 -425 6 -65 9 -74 15 -50 30 117 64 811 53 1058 l-7 147 -44 0
c-37 0 -45 -4 -53 -24z"/>
<path d="M2162 2189 c-63 -341 -54 -530 51 -1014 46 -213 66 -333 80 -501 l13
-139 47 64 c26 35 50 75 54 89 7 30 0 76 -67 437 -61 332 -87 538 -100 810 -9
191 -26 311 -49 352 -5 11 -15 -22 -29 -98z"/>
<path d="M3037 2284 c-20 -33 -38 -161 -48 -339 -20 -379 -34 -487 -148 -1090
l-28 -150 24 -45 c13 -25 39 -63 58 -85 l34 -40 1 50 c0 102 33 319 90 605 93
465 105 601 75 837 -19 142 -48 272 -58 257z"/>
<path d="M1690 2225 c-59 -77 -149 -158 -205 -185 -26 -13 -74 -25 -111 -28
-71 -5 -86 -15 -53 -33 34 -18 122 -4 192 29 96 46 153 103 192 195 18 42 32
77 30 77 -1 0 -22 -25 -45 -55z"/>
<path d="M3518 2215 c33 -86 103 -160 195 -205 72 -35 161 -49 196 -31 33 18
18 28 -51 33 -35 3 -85 16 -113 29 -49 23 -173 136 -228 209 l-26 35 27 -70z"/>
<path d="M1736 1798 c-160 -194 -288 -410 -346 -584 -60 -176 -126 -412 -154
-555 -42 -205 -32 -326 32 -382 26 -24 88 -46 128 -47 l32 0 -5 83 c-16 244
57 625 176 924 21 54 42 118 46 143 16 97 78 282 159 473 9 20 14 37 12 37 -3
0 -39 -41 -80 -92z"/>
<path d="M3426 1855 c73 -181 97 -245 122 -331 16 -54 33 -119 37 -144 4 -24
27 -94 50 -155 115 -298 167 -556 169 -833 l1 -164 49 7 c189 25 212 171 97
608 -61 229 -127 434 -165 512 -70 142 -231 380 -336 495 l-40 45 16 -40z"/>
<path d="M2048 1795 c-88 -262 -93 -399 -33 -749 14 -78 38 -218 54 -311 16
-94 33 -203 36 -243 4 -40 12 -75 16 -78 5 -3 38 14 74 38 l65 42 0 53 c0 118
-33 357 -84 605 -66 322 -84 437 -94 598 l-7 125 -27 -80z"/>
<path d="M3147 1750 c-9 -158 -28 -287 -83 -546 -56 -269 -82 -438 -90 -589
l-6 -120 65 -42 c36 -24 69 -43 74 -43 5 0 14 44 20 98 6 53 33 230 61 392 63
365 78 515 62 630 -10 75 -69 293 -89 328 -4 8 -11 -41 -14 -108z"/>
<path d="M1921 1251 c-25 -164 -31 -259 -31 -477 0 -191 14 -431 26 -443 5 -5
153 49 158 58 6 9 -27 231 -69 476 -20 116 -45 269 -54 340 l-17 130 -13 -84z"/>
<path d="M3287 1265 c-4 -38 -32 -218 -62 -400 -60 -364 -75 -474 -65 -480 15
-9 152 -56 155 -53 10 11 26 283 26 447 0 178 -19 430 -39 521 -8 32 -9 29
-15 -35z"/>
<path d="M1578 1055 c-85 -273 -134 -605 -114 -768 l8 -58 36 6 c113 18 163
28 167 34 2 4 0 36 -5 72 -24 170 -43 405 -49 609 l-6 225 -37 -120z"/>
<path d="M3607 930 c-5 -197 -29 -486 -52 -631 l-6 -36 73 -12 c40 -6 87 -14
104 -17 l32 -5 7 61 c17 143 -25 467 -89 686 -63 220 -62 221 -69 -46z"/>
</g>
</svg>
